<?xml version="1.0" ?>
<svg xmlns="http://www.w3.org/2000/svg" id="Layer_1" data-name="Layer 1" viewBox="0 0 491.15 384.1">
	<title>1024back-arrow-white</title>
	<path class="cls-1" d="M154.15,356h5.28q175.7,0,351.4,0c18.2,0,31.7,13.54,31.15,31.1A29.93,29.93,0,0,1,513.11,416c-8.83.2-17.66.05-26.49.05H153.41c1.67,1.83,2.77,3.13,4,4.34q52.56,52.77,105.11,105.55c14,14.09,12.57,35.48-2.92,46.54a29.47,29.47,0,0,1-36.12-1.24c-1.92-1.59-3.68-3.38-5.45-5.15Q140,487.8,62.05,409.54c-15-15.05-14.94-32.1.16-47.25q78.67-79,157.37-157.91c11.46-11.49,26.18-13.65,38.55-5.83,16.45,10.41,18.91,32.77,4.89,47-21.17,21.48-42.54,42.76-63.83,64.12q-21,21.07-42,42.12a22.83,22.83,0,0,1-4.08,2.64Z" transform="translate(-50.85 -193.91)"/>
</svg>
