<svg id="Layer_1" data-name="Layer 1" xmlns="http://www.w3.org/2000/svg" viewBox="0 0 512 512"><defs><style>.cls-1{fill:#4c0101;}.cls-2{fill:#4e0404;}</style></defs><title>1024chart</title><path class="cls-1" d="M101,134V581.88H543c2,0,4,.07,6,.11v21c-2,0-4,.08-6,.08H101V646H80V603H37V582H79.75v-6.57q0-217.72,0-435.46c0-2,.16-4,.24-6Z" transform="translate(-37 -134)"/><path class="cls-2" d="M438.22,327.85c19.38-51.63,38.45-102.46,57.55-153.28,2.78-7.39,9.11-10.44,15.22-7.47,5.32,2.59,7.24,8.37,4.78,15q-10.44,28-21,56-20.48,54.56-40.94,109.13a43.16,43.16,0,0,1-1.9,4.6c-3.36,6.57-10.57,8.19-16.37,3.67a47.1,47.1,0,0,1-4-3.74q-32.18-32.16-64.31-64.35a32.38,32.38,0,0,1-2.95-4L363,284c-2.28,9.6-4.6,19.19-6.81,28.81Q330.05,426.26,304,539.71c-1.08,4.68-3.2,8.46-8.05,9.88s-8.6-.78-12-4.2c-18.08-18.21-36.24-36.33-56.36-56.46-.82,1.85-1.17,3.95-2.4,5.19q-36.1,36.35-72.5,72.42a18.56,18.56,0,0,1-9,4.46,7.89,7.89,0,0,1-9.19-5.31c-1-3.14-.54-7,.17-10.38.4-1.85,2.56-3.39,4.08-4.92q39.73-39.79,79.52-79.54c8.44-8.44,12.77-8.41,21.3.13l47.25,47.26c2.46-10.54,4.8-20.43,7.08-30.34Q320,374.67,346.1,261.42c1-4.46,3.08-8.06,7.79-9.51,4.95-1.51,8.71.51,12.1,3.9q33.9,34,67.86,67.87C435.11,324.94,436.43,326.15,438.22,327.85Z" transform="translate(-37 -134)"/></svg>