<svg id="Layer_1" data-name="Layer 1" xmlns="http://www.w3.org/2000/svg" viewBox="0 0 500.15 499.96"><defs><style>.cls-1{fill:#4c0201;}.cls-2{fill:#fdc10e;}</style></defs><title>1024exchange</title><path class="cls-1" d="M55.93,402c0-138.07,112.16-250.11,250.29-250S556.17,264.2,556.07,402.43C556,540.13,443.7,652.06,305.78,651.94S55.93,539.85,55.93,402ZM234.8,479.48l-45.29-44.75,45.29-45.16c0,3.42,0,7.19,0,11,0,10.59,3,13.54,13.77,13.54H356.09c0,10.62-.06,20.45,0,30.27a9.77,9.77,0,0,0,6.17,9.47c4.11,1.78,7.82.78,11.05-2.2,1-.9,1.94-1.83,2.88-2.78q33-33.1,66-66.24c6.55-6.58,6.6-11.49.16-18q-33.54-33.66-67.07-67.3c-3.71-3.75-7.68-6.15-12.88-4.08-5.48,2.19-6.52,6.94-6.41,12.35.17,8.95.05,17.9.05,27.37h-5.83c-21.34,0-42.68,0-64,0-6.54,0-11.21,4.54-11.09,10.33s4.56,9.8,11,9.82q39.51.09,79,0c7.28,0,10.92-3.84,11-11.22.06-4.57,0-9.14,0-13.52,15.39,15.21,30.58,30.25,45.35,44.85l-45.35,45c0-3.48,0-7.41,0-11.34,0-9.93-3.18-13.06-13.25-13.06h-108c0-10.09-.06-19.42,0-28.74,0-4.94-1.51-8.92-6.22-11s-8.68-.29-12.15,3.2q-34.4,34.55-68.83,69.07c-5.35,5.38-5.27,10.69.15,16.15q34.38,34.59,68.9,69a13.54,13.54,0,0,0,5.39,3.4c6.6,1.94,12.53-2.78,12.67-10.15.19-9.78,0-19.57,0-29.86h5.86c21.34,0,42.68.05,64,0,6.54,0,11.2-4.55,11.06-10.35s-4.57-9.78-11-9.79q-39.51-.11-79,0c-7.27,0-10.9,3.85-11,11.24C234.75,470.5,234.8,475,234.8,479.48Z" transform="translate(-55.93 -151.99)"/><path class="cls-2" d="M234.8,479.48c0-4.49-.05-9,0-13.46.09-7.39,3.72-11.22,11-11.24q39.51-.11,79,0c6.46,0,10.9,4.12,11,9.79s-4.52,10.33-11.06,10.35c-21.34.08-42.68,0-64,0h-5.86c0,10.29.14,20.08,0,29.86-.14,7.37-6.07,12.09-12.67,10.15a13.54,13.54,0,0,1-5.39-3.4q-34.53-34.43-68.9-69c-5.42-5.46-5.5-10.77-.15-16.15q34.35-34.59,68.83-69.07c3.47-3.49,7.37-5.28,12.15-3.2s6.26,6,6.22,11c-.09,9.32,0,18.65,0,28.74H363c10.07,0,13.23,3.13,13.25,13.06,0,3.93,0,7.86,0,11.34l45.35-45c-14.77-14.6-30-29.64-45.35-44.85,0,4.38.05,8.95,0,13.52-.09,7.38-3.73,11.2-11,11.22q-39.53.11-79,0c-6.46,0-10.9-4.14-11-9.82S279.68,333,286.22,333c21.34-.07,42.68,0,64,0h5.83c0-9.47.12-18.42-.05-27.37-.11-5.41.93-10.16,6.41-12.35,5.2-2.07,9.17.33,12.88,4.08q33.44,33.74,67.07,67.3c6.44,6.47,6.39,11.38-.16,18q-33,33.15-66,66.24c-.94.95-1.9,1.88-2.88,2.78-3.23,3-6.94,4-11.05,2.2a9.77,9.77,0,0,1-6.17-9.47c-.08-9.82,0-19.65,0-30.27H248.57c-10.77,0-13.76-2.95-13.77-13.54,0-3.77,0-7.54,0-11l-45.29,45.16Z" transform="translate(-55.93 -151.99)"/></svg>