<?xml version="1.0" ?>
<svg xmlns="http://www.w3.org/2000/svg" id="Layer_1" data-name="Layer 1" viewBox="0 0 511.11 484">
	<title>1024favorite-star</title>
	<path class="cls-1" d="M143,626c.78-13.46,1.39-26.93,2.36-40.37,2.14-29.91,4.46-59.8,6.71-89.7,1.19-15.78,2.34-31.56,3.67-47.32a9.43,9.43,0,0,0-2.73-8Q98.89,382.4,45,324c-.66-.72-1.28-1.47-2.47-2.84,11.77-2.47,22.9-4.84,34-7.15q68.46-14.24,137-28.34c3.75-.77,5.07-3.25,6.57-6Q255.66,214,291.3,148.38c1-1.88,2.06-3.74,3.52-6.38,5.33,8.82,10.3,17,15.25,25.25q34.55,57.34,69,114.76a9.54,9.54,0,0,0,7,4.71q80.75,16.53,161.45,33.16c1.78.37,3.55.79,6.06,1.36-6.79,7.29-13.2,14.2-19.64,21.09q-47.1,50.42-94.15,100.88a8.28,8.28,0,0,0-2.15,5.56c2.29,28.39,4.82,56.76,7.25,85.13Q448.58,577,452.15,620c.17,2,0,4,0,6h-1a44.24,44.24,0,0,0-4.94-2.93q-71.85-31.32-143.72-62.63a10.07,10.07,0,0,0-8.91,0c-33.1,14.45-66.27,28.72-99.4,43.11C177.08,610.94,160.06,618.5,143,626Z" transform="translate(-42.48 -142)"/>
</svg>
