<?xml version="1.0" ?>
<svg xmlns="http://www.w3.org/2000/svg" id="Layer_1" data-name="Layer 1" viewBox="0 0 427.14 512">
	
   
	<title>1024fund-account</title>
	
   
	<path d="M86,559.61v-41c.67-4,1.5-8,2-12.06,3.43-29.1,9.35-57.47,23.55-83.56,14.47-26.57,35.53-44.42,65.61-50.92,15.61-3.37,30.32-3.15,43.53,7.54,4.64,3.75,10,6.68,15.06,9.81q64.11,39.32,128.11-.24c7.36-4.56,14.42-9.66,22-13.81,4.56-2.51,9.84-5.14,14.83-5.2,22.65-.26,43.47,6,61.15,20.67,20.26,16.76,31.57,39.3,39.09,63.83,9.87,32.13,13,65.22,12.07,98.72-1.06,36.3-23.48,65.81-58.22,76.55-6.44,2-13.14,3.13-19.71,4.67H163a23.36,23.36,0,0,0-3.62-1.15c-38.58-5.69-66.9-32.17-72.32-71.23A11.29,11.29,0,0,0,86,559.61Zm239.42,58,1,.47L392.2,539H200.88v38.79h6.53c37.51,0,75,.07,112.51-.09,4.42,0,5.72,1.25,5.6,5.66C325.22,594.75,325.42,606.2,325.42,617.65ZM203,510.31H394.73c0-11.65-.15-22.94.08-34.23.08-3.9-1.41-4.71-5-4.67-14.66.16-29.33,0-44,0-23.67,0-47.34-.1-71,.06-4,0-5.33-1.29-5.08-5.13s.12-8,.13-12q0-11.11,0-22.24l-1.46-.52Z" transform="translate(-86 -122.61)"/>
	
   
	<path d="M309,122.61c4.84,1,9.73,1.73,14.5,3,49.42,12.84,81.67,43.85,93,93.52,11.92,52.13-8.32,101.92-55.21,131.54-44.74,28.25-101,24.81-142-8.57-36.51-29.74-51-68.74-44.82-115.46,6.55-49.19,48.11-92.28,96.87-101.64,3.87-.74,7.72-1.57,11.58-2.36Z" transform="translate(-86 -122.61)"/>
	

</svg>
