<?xml version="1.0" ?>
<svg xmlns="http://www.w3.org/2000/svg" id="Layer_1" data-name="Layer 1" viewBox="0 0 491.32 384.06">

	<title>1024gold-back-arrow</title>
	<path class="cls-1" d="M163.91,376h356.8c11.82,0,21,5,26.8,15.28,5.73,10.11,5.5,20.5-.55,30.38S531.68,436,520.09,436q-100.25-.06-200.5,0H162.82c1.88,2,3.1,3.36,4.39,4.65Q219.59,493.27,272,545.9c12.79,12.87,12.92,31.55.48,43.7A29.51,29.51,0,0,1,234,592,66.61,66.61,0,0,1,227.4,586q-78-78.26-156-156.55c-14.79-14.85-14.76-32,.09-46.94q78.51-78.81,157-157.65c9.24-9.29,19.82-13.43,32.61-9.24,21.37,7,27.54,33.59,11.44,49.87Q225.46,313.1,178,360.39c-4.82,4.83-9.9,9.4-14.86,14.1Z" transform="translate(-60.34 -213.95)"/>
</svg>
