<?xml version="1.0" ?>
<svg xmlns="http://www.w3.org/2000/svg" id="Layer_1" data-name="Layer 1" viewBox="0 0 499.41 499.1">
	<title>1024home</title>
	<path class="cls-1" d="M108.27,426c-6.67,0-13,0-19.25,0-22.4-.14-38.64-13.89-42.52-35.81-1.52-8.62,1.14-15.47,7.31-21.63Q164.6,258,275.21,147.25c1.3-1.29,2.88-2.45,3.74-4,6.11-11,26.82-11.28,33.27.05.88,1.54,2.45,2.7,3.74,4L537.66,369c8,8,10.56,18.34,4.38,26.07a213.13,213.13,0,0,1-25.91,26.56c-3.34,2.94-9.14,3.67-13.95,4.2-6.22.69-12.58.17-19.4.17V589.2c0,27.5-17.38,44.8-45,44.8l-78,0a9.88,9.88,0,0,1-1.32-.2V592.64H441V384.4h52.76L295,185.79,96.58,384.15H150V592.24h82.83v41.53c-1.37.08-2.82.22-4.26.22q-38.26,0-76.54,0c-25.81,0-43.69-17.77-43.73-43.63q-.12-79,0-158Z" transform="translate(-46.08 -134.91)"/>
</svg>
