<svg id="Layer_1" data-name="Layer 1" xmlns="http://www.w3.org/2000/svg" viewBox="0 0 512 380.8"><defs><style>.cls-1{fill:#4d0303;}.cls-2{fill:#4f0606;}.cls-3{fill:#510909;}.cls-4{fill:#4e0404;}.cls-5{fill:#4f0505;}.cls-6{fill:#4d0202;}</style></defs><title>1024orders-trade</title><path class="cls-1" d="M562,250V543c-1.46,3.77-2.67,7.67-4.41,11.31-10.54,21.93-28.16,32.1-52.38,32.08q-199.15-.17-398.3-.06c-2.17,0-4.33-.08-6.49-.18a53.2,53.2,0,0,1-48.28-37.79c-.62-2.15-1.42-4.24-2.14-6.36V249c1.45-3.78,2.66-7.68,4.4-11.32,10.53-22,28.2-32.09,52.4-32.07q199.19.15,398.37.05c2,0,4,.07,6,.16a52.91,52.91,0,0,1,48.37,36.95C560.31,245.18,561.18,247.58,562,250ZM163.47,235.74V556c1.4.09,2.54.23,3.68.23q170,0,340,0c15.47,0,24.83-9.52,24.83-25q0-135.25,0-270.51a32,32,0,0,0-.39-6c-2.38-12.37-11.49-19-25.94-19q-168.49,0-337,0Zm-30.54,0c-9.22,0-18,0-26.84,0-17.13,0-26,9-26,26.27q0,134,0,267.91c0,1.5,0,3,0,4.5.58,10.45,8.37,20.39,18.49,21.25,11.34,1,22.83.22,34.38.22v-145H110.28V381h22.65Z" transform="translate(-50 -205.6)"/><path class="cls-2" d="M204.46,379.41V285.7H352.4v93.71Zm30.06-30.16h87.8V315.91h-87.8Z" transform="translate(-50 -205.6)"/><path class="cls-3" d="M485.72,285.63v29.65H404V285.63Z" transform="translate(-50 -205.6)"/><path class="cls-4" d="M404,379.34V350h81.77v29.36Z" transform="translate(-50 -205.6)"/><path class="cls-5" d="M271.58,443.53V414.09h81.73v29.44Z" transform="translate(-50 -205.6)"/><path class="cls-4" d="M353.47,478.21v29.42H271.73V478.21Z" transform="translate(-50 -205.6)"/><path class="cls-1" d="M404,414h81.7v29.45H404Z" transform="translate(-50 -205.6)"/><path class="cls-6" d="M485.7,507.7H404V478.25H485.7Z" transform="translate(-50 -205.6)"/><path class="cls-5" d="M206.47,443.59V414h30.59v29.58Z" transform="translate(-50 -205.6)"/><path class="cls-4" d="M206.58,478.06H237V507.6H206.58Z" transform="translate(-50 -205.6)"/></svg>