<?xml version="1.0" ?>
<svg xmlns="http://www.w3.org/2000/svg" id="Layer_1" data-name="Layer 1" viewBox="0 0 468.59 497.07">
	<title>1024orders</title>
	<path class="cls-1" d="M302.3,240.35c78.59-.41,144.1,64.32,144.38,142.64.29,80.13-63.57,145.34-142.74,145.77A144.14,144.14,0,0,1,158.41,384.37C158.17,305.25,222.6,240.76,302.3,240.35Zm-117.86,144c-.2,64.95,52.43,118,117.45,118.44,65.2.42,118.49-52.61,118.78-118.2.29-64.59-52.61-117.67-117.8-118.2C238.1,265.82,184.64,319.07,184.44,384.31Z" transform="translate(-71.71 -139.48)"/>
	<path class="cls-1" d="M291.44,636.55c-57-.17-108.84-14.33-152.48-52.22-44.76-38.85-64-98.59-67.25-146.5H99c6.51,79.24,42.88,136.18,121.1,163.24,1.29-7.49,2.49-14.28,3.63-21.07s2.27-13.75,3.41-20.66C242.15,566.43,291.25,624.58,291.44,636.55Z" transform="translate(-71.71 -139.48)"/>
	<path class="cls-1" d="M384.07,217.82c-21-20.84-41.75-40.39-58.45-63.63-2.94-4.09-6.05-8.32-5.69-14.7,53.29-.13,102.4,12.28,144.61,45.65,49.07,38.78,68.89,92.45,75.75,152.86H512.15c-2.8-45.74-17.2-86.63-49.39-120.08-18.72-19.45-52-38.91-71.61-42.19C388.86,189.38,386.55,203,384.07,217.82Z" transform="translate(-71.71 -139.48)"/>
</svg>
