<svg id="Layer_1" data-name="Layer 1" xmlns="http://www.w3.org/2000/svg" viewBox="0 0 512 512">
<path d="M299,134h13a4.44,4.44,0,0,0,1.25.73c19.41,4.15,32.21,15.47,40.17,33.84,3.93,9.08,10.68,17.17,17.2,24.83,7,8.2,16.61,11.82,27.56,12a87.11,87.11,0,0,0,32.27-5.55c5.56-2.08,11.4-4.33,17.21-4.65,38.88-2.1,63.6,32.9,49.28,69.08a101.48,101.48,0,0,0-5.38,18.65c-3.79,20.22,1.26,37.45,18.72,49.61A116.61,116.61,0,0,0,530.09,344c11.69,5.1,20.56,12.94,26.14,24.25,2.46,5,3.88,10.53,5.77,15.81v13a11.37,11.37,0,0,0-1.06,2.16c-4.71,18.4-15.59,31.16-33.56,38-9.93,3.79-18.18,10.34-25.54,18a38.07,38.07,0,0,0-11.21,26.45,86.47,86.47,0,0,0,5.52,32.77c2.08,5.56,4.35,11.4,4.67,17.21C503,570.53,468,595.3,431.78,581a103.07,103.07,0,0,0-18.65-5.38c-20.24-3.83-37.43,1.29-49.59,18.76a115.58,115.58,0,0,0-11.44,19.8c-5.07,11.73-13,20.5-24.29,26.09-5,2.48-10.52,3.89-15.81,5.78H299a17.24,17.24,0,0,0-2.65-1.17c-17.74-4.73-30.12-15.24-37.27-32.46-3-7.26-7.65-14-12.51-20.3-8.8-11.33-20.22-18-35.22-17.56a92.78,92.78,0,0,0-30.24,5.85c-5.39,2.05-11.1,4.16-16.76,4.47C125.44,587,100.73,552,115.06,515.78a103.07,103.07,0,0,0,5.38-18.65c3.84-20.26-1.4-37.42-18.81-49.59a114.55,114.55,0,0,0-19.8-11.44,51,51,0,0,1-26.35-24.73C53.2,406.81,51.8,401.82,50,397V383a11.37,11.37,0,0,0,1.06-2.16c4.69-18.43,15.89-30.57,33.5-38.21,9.07-3.93,17.16-10.7,24.81-17.23,8.34-7.12,11.91-16.94,12-28.07a88,88,0,0,0-5.55-31.78c-2.07-5.56-4.33-11.4-4.65-17.22-2.1-38.9,32.88-63.6,69.09-49.26a102.24,102.24,0,0,0,18.65,5.37c20.47,3.87,37.73-1.49,49.9-19.18a115.15,115.15,0,0,0,11.11-19.42,50.83,50.83,0,0,1,24.73-26.36C289.22,137.24,294.21,135.83,299,134ZM306.16,484c51.69-.14,94-42.58,93.71-94.09-.25-51.76-42.66-94-94.12-93.73-51.79.27-93.84,42.52-93.69,94.14S254.51,484.11,306.16,484Z" transform="translate(-50 -134.03)"/>
</svg>