<?xml version="1.0" encoding="UTF-8"?>
<svg xmlns="http://www.w3.org/2000/svg" id="Layer_1" data-name="Layer 1" viewBox="0 0 444 428">
   <path d="M130,166.61c4.13,2.45,5.43,6,5.27,10.81-.35,10.45-.1,20.92-.1,32.07,7.73,0,15,0,22.28,0,8.31,0,12,2.56,12,11.61-.3,59-.15,118-.16,177,0,8.66-1.55,10.37-10.33,10.79-6.31.31-12.65.54-19,.38-3.65-.09-5,.88-4.87,4.73.29,7.33.12,14.67.07,22,0,5.09-4.29,9.66-8.78,9.55-4.2-.1-8.19-4.71-8.23-9.7-.06-8.63,0-17.25,0-26.95-8.67,0-16.78,0-24.88,0-3.54,0-6.64-.68-8.24-4.3l-1-1v-189c2.62-4,6.28-5.36,11-5.19,7.57.27,15.16.07,23.12.07,0-11,.23-21.32-.1-31.59-.17-5.18,1.09-9.05,6-11.29Z" transform="translate(-84 -166.61)" />
   <path d="M481,594.61c-3.74-3.21-4.45-7.31-4.25-12.06.32-7.63.08-15.29.08-23.48-1.9-.11-3.49-.27-5.09-.28-7,0-14,.11-21-.08-5.71-.15-8-2.41-8-7.87q-.06-91.74,0-183.47c0-5.54,2.48-7.82,8.49-8,8.15-.18,16.31-.18,24.47-.28.13,0,.27-.17,1.1-.71,0-7.29,0-15.06,0-22.83,0-3.67-.07-7.33,0-11,.12-5.26,2.64-8.21,7.5-7.86,7,.5,9.33,2.34,9.45,7.74.21,9.33.06,18.66.06,28,0,6.91,0,6.91,7.15,6.92,5.5,0,11,.16,16.5-.05,4.58-.18,8.05,1.41,10.48,5.28v189c-2.53,4.08-6.23,5.39-10.94,5.24-7.56-.25-15.14-.07-23.19-.07,0,8.59-.26,16.52.1,24.42.23,5.2-1.36,9-6,11.41Z" transform="translate(-84 -166.61)" />
   <path d="M84,403.61l1,1-1,0Z" transform="translate(-84 -166.61)" />
   <path d="M357.09,273.61c0-11.38,0-22.17,0-33,0-7.49,1.74-9.18,9.09-9,5.55.1,7.87,2.28,7.91,7.85.08,11.14,0,22.27,0,34.15h23.17c8.71,0,10.92,2.22,10.92,10.87V462.42c0,8.74-2.37,11.05-11.35,11.07-7.32,0-14.64,0-22.74,0,0,9.09.15,17.85-.1,26.61-.06,2.08-.86,5-2.35,6-2.48,1.63-6,3.1-8.7,2.63-3.74-.64-5.9-4-5.88-8.2,0-7.16,0-14.32,0-21.49v-5.57c-8.39,0-16.33,0-24.27,0-7.35,0-9.78-2.47-9.79-9.9q0-90,0-179.93c0-7.68,2.39-10,10.22-10C340.9,273.59,348.56,273.61,357.09,273.61Z" transform="translate(-84 -166.61)" />
   <path d="M237.87,302.34c0-11.87.46-22.68-.14-33.44-.5-9,7.17-11.34,12.82-8,2.17,1.29,4,4.88,4.17,7.51.5,9.31.19,18.66.19,28v5.93c8.11,0,15.72,0,23.32,0,8.5,0,10.74,2.24,10.74,10.58q0,89.24,0,178.47c0,7.87-2.48,10.3-10.52,10.33-7.62,0-15.25,0-23.54,0,0,9.44.35,18.4-.22,27.3-.16,2.57-2.44,5.75-4.69,7.28-3.1,2.1-7.21,2.17-9.88-1.24a11.33,11.33,0,0,1-2.15-6.29c-.23-8.78-.1-17.58-.1-27-8.42,0-16.36,0-24.3,0s-9.77-1.89-9.77-9.63q0-90.24,0-180.47c0-7,2.12-9.19,9.2-9.26C221.1,302.27,229.21,302.34,237.87,302.34Z" transform="translate(-84 -166.61)" />
</svg>