<svg id="Layer_1" data-name="Layer 1" xmlns="http://www.w3.org/2000/svg" viewBox="0 0 512 480.55"><defs><style>.cls-1{fill:#4d0303;}.cls-2{fill:#4c0202;}</style></defs><title>1024trades-clock</title><path class="cls-1" d="M562,409c-.94,5.46-1.92,10.91-2.82,16.37-10.57,64.85-42,117.3-94.61,156.51-50.56,37.71-108,52.52-170.39,45.75-66.43-7.22-119.9-38.44-160.14-92-7.68-10.21-3.55-23.35,8.19-26.17,7.48-1.8,13.25,1.25,17.69,7.35a189,189,0,0,0,41.89,41.89c40.63,29.45,86.15,41.93,136,37.46,71.82-6.44,126.77-40.91,163.81-102.58,49.91-83.08,32.64-193.37-39.33-258.25Q411.93,190,344.7,182.15C241.92,170.05,143.64,239.13,120,340c-1,4.16-1.93,8.32-3.13,13.47,1.7-.77,2.91-1,3.72-1.76,2.1-1.88,4-4,6-6,6.66-6.3,16.15-6.4,22.47-.29,6.47,6.25,6.66,16.08.13,22.83-8,8.27-16.22,16.31-24.35,24.44-5,4.95-9.85,9.95-14.86,14.84-8.52,8.29-19.22,7.21-25.91-2.71Q67,379.45,50,354v-9c4.82-9.3,10.17-12.75,18-12,9.16.91,12.17,9.12,17.48,15.65.74-4.05,1.19-7,1.81-9.9,30-139.54,175.08-223.59,310-177.31,90.91,31.18,144.54,96.49,161.92,191.23,1,5.43,1.88,10.88,2.82,16.32Z" transform="translate(-50 -148.64)"/><path class="cls-2" d="M298,324.66q0-35,0-70c0-10.56,6.6-17.79,16.07-17.74S330,244.28,330,254.88q0,64.47-.07,128.93c0,3.68,1,6,4,8.24,27.7,20.76,55.24,41.73,82.87,62.58,4.11,3.11,7.53,6.59,8.2,12,.86,6.95-1.54,12.59-7.59,16.13-6.4,3.76-12.7,2.94-18.62-1.52q-40.32-30.29-80.67-60.53c-3.59-2.69-7.05-5.61-10.82-8-6.83-4.39-9.49-10.45-9.4-18.53C298.17,371,298,347.82,298,324.66Z" transform="translate(-50 -148.64)"/></svg>