<svg id="Layer_1" data-name="Layer 1" xmlns="http://www.w3.org/2000/svg" viewBox="0 0 409.94 375.44"><defs><style>.cls-1{fill:#4d0303;}</style></defs><title>1024trade</title><path class="cls-1" d="M493.87,463.23V480.3q0,37.5,0,75c0,5.87-2.3,9.22-6.89,10.17-4.08.85-7.38-.7-9.1-4.4a16.6,16.6,0,0,1-1-6.77q-.09-42.49,0-85v-6.11c-3.14,0-5.92.13-8.68,0-5.06-.28-7.92-3.12-8.33-8.14-.14-1.66-.07-3.34-.07-5q0-71.74,0-143.49c0-12.25,1.43-13.68,13.77-13.85.82,0,1.65-.08,3.32-.17v-5.25c0-23.33,0-46.66,0-70,0-7.88,6.27-12.31,12.44-9,3.87,2.11,4.64,5.74,4.63,9.81q-.06,34.24,0,68.49v6.1c2.9,0,5.51-.1,8.12,0,5.45.24,8.55,3.28,8.91,8.73.13,2,0,4,0,6V448.94c0,12.51-1.57,14.11-13.95,14.29Z" transform="translate(-101.03 -190.25)"/><path class="cls-1" d="M135.19,463.43v8.32q0,33.5,0,67c0,6-3.26,9.78-8.23,9.92-5.13.15-8.64-3.82-8.82-10,0-1.17,0-2.34,0-3.5v-72c-2.83,0-5.28.07-7.73,0-6-.21-9.07-3.28-9.32-9.36-.06-1.33,0-2.66,0-4V306.36c0-11.75,1.77-13.53,13.54-13.67h3.52V287q0-42.49,0-85a20.4,20.4,0,0,1,.64-5.9,7.72,7.72,0,0,1,8.77-5.81c4.19.45,7,2.95,7.5,7.41a43.71,43.71,0,0,1,.14,5v90c3.05,0,5.67-.1,8.27,0,5.58.24,8.45,3.14,8.78,8.75.09,1.5,0,3,0,4.5V449c0,12.74-1.29,14.06-13.86,14.26C137.6,463.25,136.78,463.33,135.19,463.43Z" transform="translate(-101.03 -190.25)"/><path class="cls-1" d="M357.13,463.21c-3.12,0-5.6.09-8.07,0-5.48-.24-8.89-3.27-8.91-8.67q-.18-42.49,0-85c0-5.31,3.62-8.41,9.05-8.59,2.46-.09,4.94,0,7.93,0V288.29c0-1.34-.07-2.68,0-4,.39-5.24,3.74-8.6,8.52-8.62,5,0,8.46,3.41,8.48,9,.08,23.33,0,46.66,0,70v6.25c2.92,0,5.67-.1,8.41,0,5.25.23,8.55,3.21,8.57,8.42q.17,42.74,0,85.49c0,5.23-3.25,8.07-8.64,8.32-2.61.13-5.23,0-8.34,0v71.9c0,1.17,0,2.33,0,3.5-.12,6.23-3.49,10.17-8.61,10.07s-8.42-4.08-8.44-10.35c0-16.83,0-33.66,0-50.49Z" transform="translate(-101.03 -190.25)"/><path class="cls-1" d="M237.78,343.89V308.23q0-28.25,0-56.48c0-6.46,3.09-10.19,8.29-10.28,5.4-.09,8.74,3.8,8.75,10.46q0,43,0,86v6c2.93,0,5.54-.08,8.15,0,5.16.2,8.75,3.24,8.81,8.28q.27,25.74,0,51.48c-.05,5.06-3.61,8.13-8.74,8.36-2.49.1-5,0-8.22,0v5.41c0,22.83,0,45.65,0,68.48a18.18,18.18,0,0,1-.91,6.34c-1.51,3.89-4.74,5.47-8.82,4.93s-6.65-3-7.15-7.13a68.66,68.66,0,0,1-.15-8q0-32.25,0-64.49V412c-2.92,0-5.53.07-8.13,0-5.57-.19-8.83-3.14-8.87-8.63q-.19-25.49,0-51c0-5.28,3.23-8.25,8.47-8.5C231.89,343.79,234.54,343.89,237.78,343.89Z" transform="translate(-101.03 -190.25)"/></svg>