<?xml version="1.0" ?>
<svg xmlns="http://www.w3.org/2000/svg" id="Layer_1" data-name="Layer 1" viewBox="0 0 512 448.2">
	
   
	<path d="M75.67,553V215c.61-1.87,1.34-3.72,1.83-5.62q10.09-39,49.14-48.62c2-.5,4-1.17,6-1.76h3a47.49,47.49,0,0,0,6.75,1q145.2.07,290.4,0c3.66,0,7.32-.07,11-.1,19.54,2.05,36.08,19,36.84,38.62.54,13.81.31,27.65.18,41.47,0,3.72,1.16,5,4.87,4.85,5-.26,10-.1,15-.06,26.29.23,44,18,44.2,44.42.07,11.83,0,23.65,0,35.48,0,1.61-.22,3.21-.37,5.33h-5.76c-16.65,0-33.31-.22-50,.08-49.15.86-91,41.79-93.05,90.88-2.37,55.55,40.81,100.79,96.47,101,15.66.07,31.32,0,47,0,1.76,0,3.53.16,5.69.27,0,14.51.19,28.48,0,42.45-.39,23.27-16.79,40.51-40.09,42.47-2.16-.07-4.32-.19-6.48-.19H144.07c-2.83,0-5.66.11-8.48.18-29.14-2.44-51.4-21.55-58.44-50.13A38,38,0,0,0,75.67,553ZM438.39,202H143.2c-1.5,0-3-.05-4.49,0-10.66.55-19.45,9-20.17,19.28-.8,11.43,6.17,20.83,17.17,22.84a49.45,49.45,0,0,0,8.95.59q143.19,0,286.37,0c1.5,0,3.11.31,4.47-.14,1.12-.37,2.76-1.65,2.77-2.54C438.45,229,438.39,215.85,438.39,202Z" transform="translate(-75.67 -159)"/>
	
   
	<path d="M587.67,478c-3.94,9.09-10.85,12.31-20.68,12.14-25-.43-50-.07-74.94-.16-33.48-.13-60.57-24.68-64.16-58-3.37-31.33,18.25-61.13,49.82-68.34a69.08,69.08,0,0,1,14.84-1.57c24.82-.15,49.63.23,74.44-.22,9.85-.17,16.73,3.07,20.68,12.15Zm-74.81-51.67a21.2,21.2,0,1,0-21.54,20.86A20.91,20.91,0,0,0,512.86,426.33Z" transform="translate(-75.67 -159)"/>
	

</svg>
